{"title":"Geordie Shore S12E01 1080P WEB-DL AAC2 0 H 264","uid":13887852,"size":1576897679,"categoryP":"video","categoryS":"hd___tv_shows","magnet":"?xt=urn:btih:fa435965fdd91d7d0699eac80a88caad8ca7c48b&amp;dn=Geordie+Shore+S12E01+1080P+WEB-DL+AAC2+0+H+264&amp;tr=udp%3A%2F%2Ftracker.leechers-paradise.org%3A6969&amp;tr=udp%3A%2F%2Fzer0day.ch%3A1337&amp;tr=udp%3A%2F%2Fopen.demonii.com%3A1337&amp;tr=udp%3A%2F%2Ftracker.coppersurfer.tk%3A6969&amp;tr=udp%3A%2F%2Fexodus.desync.com%3A6969","seeders":5,"leechers":2,"uploader":"jmanwf","files":1,"time":1458191000,"description":"Description\r\nThe Geordies are back! Chloe turns on her charm to try to get with Scott. Holly has a huge secret but will she tell anyone? A shock new arrival sees the lads buzzin' and Chloe stressing.\r\n\r\n\r\n\r\nVideo\r\nID : 2\r\nFormat : AVC\r\nFormat/Info : Advanced Video Codec\r\nFormat profile :   \r\nFormat settings, CABAC : Yes\r\nFormat settings, ReFrames : 4 frames\r\nCodec ID : avc1\r\nCodec ID/Info : Advanced Video Coding\r\nDuration : 42mn 3s\r\nBit rate : 4 870 Kbps\r\nWidth : 1 920 pixels\r\nHeight : 1 080 pixels\r\nDisplay aspect ratio : 16:9\r\nFrame rate mode : Constant\r\nFrame rate : 25.000 fps\r\nColor space : YUV\r\nChroma subsampling : 4:2:0\r\nBit depth : 8 bits\r\nScan type : Progressive\r\nBits/(Pixel*Frame) : 0.094\r\nStream size : 1.43 GiB (97%)\r\nLanguage : English\r\nEncoded date : UTC 2016-03-16 04:27:27\r\nTagged date : UTC 2016-03-16 04:30:15\r\nColor range : Limited\r\nColor primaries : BT.709\r\nTransfer characteristics : BT.709\r\nMatrix coefficients : BT.709\r\n\r\nAudio\r\nID : 1\r\nFormat : AAC\r\nFormat/Info : Advanced Audio Codec\r\nFormat profile : LC\r\nCodec ID : 40\r\nDuration : 42mn 3s\r\nBit rate mode : Variable\r\nBit rate : 126 Kbps\r\nMaximum bit rate : 179 Kbps\r\nChannel(s) : 2 channels\r\nChannel positions : Front: L R\r\nSampling rate : 48.0 KHz\r\nCompression mode : Lossy\r\nStream size : 37.9 MiB (3%)\r\nLanguage : English\r\nEncoded date : UTC 2016-03-16 04:27:27\r\nTagged date : UTC 2016-03-16 04:30:15","torrent":{"xt":"urn:btih:fa435965fdd91d7d0699eac80a88caad8ca7c48b","amp;dn":"Geordie+Shore+S12E01+1080P+WEB-DL+AAC2+0+H+264","amp;tr":["udp%3A%2F%2Ftracker.leechers-paradise.org%3A6969","udp%3A%2F%2Fzer0day.ch%3A1337","udp%3A%2F%2Fopen.demonii.com%3A1337","udp%3A%2F%2Ftracker.coppersurfer.tk%3A6969","udp%3A%2F%2Fexodus.desync.com%3A6969"],"infoHash":"fa435965fdd91d7d0699eac80a88caad8ca7c48b","infoHashBuffer":{"type":"Buffer","data":[250,67,89,101,253,217,29,125,6,153,234,200,10,136,202,173,140,167,196,139]},"announce":[],"urlList":[]}}